<svg xmlns="http://www.w3.org/2000/svg" width="28" height="28" viewBox="0 0 24.37 24.37"><path d="M12.185,0C8.875,0,8.461.015,7.162.073A8.985,8.985,0,0,0,4.2.64,5.967,5.967,0,0,0,2.045,2.045,5.945,5.945,0,0,0,.64,4.2,8.958,8.958,0,0,0,.073,7.162C.012,8.461,0,8.875,0,12.185s.015,3.723.073,5.023A8.99,8.99,0,0,0,.64,20.166a5.976,5.976,0,0,0,1.405,2.159A5.959,5.959,0,0,0,4.2,23.73a9,9,0,0,0,2.958.567c1.3.061,1.713.073,5.023.073s3.723-.015,5.023-.073a9.017,9.017,0,0,0,2.958-.567,6.227,6.227,0,0,0,3.564-3.564,8.99,8.99,0,0,0,.567-2.958c.061-1.3.073-1.713.073-5.023s-.015-3.723-.073-5.023A9.011,9.011,0,0,0,23.73,4.2a5.98,5.98,0,0,0-1.405-2.159A5.937,5.937,0,0,0,20.166.64,8.964,8.964,0,0,0,17.208.073C15.908.012,15.5,0,12.185,0Zm0,2.193c3.252,0,3.64.016,4.925.072a6.713,6.713,0,0,1,2.261.421A4.01,4.01,0,0,1,21.684,5,6.727,6.727,0,0,1,22.1,7.26c.058,1.285.071,1.671.071,4.925s-.015,3.64-.075,4.925a6.857,6.857,0,0,1-.427,2.261,3.869,3.869,0,0,1-.913,1.4,3.8,3.8,0,0,1-1.4.91,6.777,6.777,0,0,1-2.269.419c-1.294.058-1.674.071-4.934.071s-3.641-.015-4.934-.075a6.909,6.909,0,0,1-2.27-.427,3.773,3.773,0,0,1-1.4-.913,3.7,3.7,0,0,1-.914-1.4,6.915,6.915,0,0,1-.426-2.269c-.046-1.279-.062-1.674-.062-4.919s.016-3.641.062-4.936a6.907,6.907,0,0,1,.426-2.268,3.612,3.612,0,0,1,.914-1.4,3.6,3.6,0,0,1,1.4-.912,6.744,6.744,0,0,1,2.255-.427c1.295-.046,1.675-.061,4.934-.061Zm0,3.735a6.257,6.257,0,1,0,6.257,6.257,6.256,6.256,0,0,0-6.257-6.257Zm0,10.318a4.062,4.062,0,1,1,4.062-4.062A4.06,4.06,0,0,1,12.185,16.246ZM20.152,5.681A1.462,1.462,0,1,1,18.69,4.22,1.463,1.463,0,0,1,20.152,5.681Z" fill="#fff"/></svg>