<svg xmlns="http://www.w3.org/2000/svg" width="29.759" height="24.181" viewBox="0 0 29.759 24.181"><g transform="translate(0.001)"><rect width="23.249" height="23.249" transform="translate(3.254 0.466)" fill="none"/><path d="M9.359,72.168c11.23,0,17.372-9.3,17.372-17.372,0-.264,0-.527-.018-.789a12.423,12.423,0,0,0,3.046-3.16,12.189,12.189,0,0,1-3.507.961,6.128,6.128,0,0,0,2.684-3.377,12.238,12.238,0,0,1-3.877,1.482A6.111,6.111,0,0,0,14.655,55.48,17.342,17.342,0,0,1,2.071,49.1a6.135,6.135,0,0,0,1.89,8.15,6.06,6.06,0,0,1-2.771-.764v.077a6.126,6.126,0,0,0,4.9,5.985,6.1,6.1,0,0,1-2.757.1,6.125,6.125,0,0,0,5.7,4.24,12.254,12.254,0,0,1-7.583,2.619A12.418,12.418,0,0,1,0,69.425a17.287,17.287,0,0,0,9.359,2.738" transform="translate(-0.001 -47.987)" fill="#fff"/></g></svg>