<svg xmlns="http://www.w3.org/2000/svg" width="30.994" height="21.792" viewBox="0 0 30.994 21.792"><g transform="translate(-0.001)"><g transform="translate(0.001 0)"><path d="M56.347,97.692a3.9,3.9,0,0,0-2.74-2.758c-2.417-.652-12.109-.652-12.109-.652s-9.692,0-12.109.652a3.894,3.894,0,0,0-2.74,2.758,43.848,43.848,0,0,0,0,15.017,3.837,3.837,0,0,0,2.74,2.714c2.417.652,12.109.652,12.109.652s9.692,0,12.109-.652a3.837,3.837,0,0,0,2.74-2.714,43.848,43.848,0,0,0,0-15.017Z" transform="translate(-26.001 -94.282)" fill="#fff"/><path d="M208.954,197.147V187.93l8.1,4.608Z" transform="translate(-196.627 -181.62)" fill="#2a2d74"/></g></g></svg>