<svg xmlns="http://www.w3.org/2000/svg" width="258" height="161" viewBox="0 0 258 161">
  <g id="Group_109" data-name="Group 109" transform="translate(-811 -1052)">
    <g id="Rectangle_100" data-name="Rectangle 100" transform="translate(811 1052)" fill="#f3fafa" stroke="#009292" stroke-width="1">
      <rect width="258" height="161" rx="20" stroke="none"/>
      <rect x="0.5" y="0.5" width="257" height="160" rx="19.5" fill="none"/>
    </g>
    <g id="_1814111_image_photograph_picture_icon" data-name="1814111_image_photograph_picture_icon" transform="translate(1162.049 1074.839)" opacity="0.5">
      <g id="Icon-Image" transform="translate(19 259)">
        <path id="Fill-12" d="M-226.2-181.6h-39.5a4.225,4.225,0,0,1-4.2-4.2V-214a4.225,4.225,0,0,1,4.2-4.2h39.5A4.225,4.225,0,0,1-222-214v28.2a4.225,4.225,0,0,1-4.2,4.2Zm-39.6-33.9a1.367,1.367,0,0,0-1.4,1.4v28.2a1.367,1.367,0,0,0,1.4,1.4h39.5a1.367,1.367,0,0,0,1.4-1.4v-28.2a1.367,1.367,0,0,0-1.4-1.4Z" fill="#134563"/>
        <path id="Fill-13" d="M-238.9-201.5a5.484,5.484,0,0,1-5.5-5.5,5.549,5.549,0,0,1,5.5-5.5,5.549,5.549,0,0,1,5.5,5.5,5.549,5.549,0,0,1-5.5,5.5Zm0-8.5a2.9,2.9,0,0,0-2.9,2.9,2.9,2.9,0,0,0,2.9,2.9,2.9,2.9,0,0,0,2.9-2.9,2.9,2.9,0,0,0-2.9-2.9Z" fill="#134563"/>
        <path id="Fill-14" d="M-231.4-182.1l-23.1-21.7-13.2,12.2-1.8-1.9,15-13.9,24.9,23.4-1.8,1.9" fill="#134563"/>
        <path id="Fill-15" d="M-224.2-189.3l-7.7-6.2-6.4,5.3-1.7-2.1,8.1-6.6,9.3,7.6-1.6,2" fill="#134563"/>
      </g>
    </g>
    <g id="Add" transform="translate(-26.715 78.895)" opacity="0.5">
      <g id="Add-2" data-name="Add" transform="translate(-3 -47.98)">
        <line id="Line_8" data-name="Line 8" x2="15.066" transform="translate(983.5 1076.894)" fill="none" stroke="#134563" stroke-width="2"/>
        <line id="Line_9" data-name="Line 9" y2="12.636" transform="translate(991.034 1071.062)" fill="none" stroke="#134563" stroke-width="2"/>
      </g>
    </g>
  </g>
</svg>
