<svg xmlns="http://www.w3.org/2000/svg" width="258" height="161" viewBox="0 0 258 161">
  <g id="Group_108" data-name="Group 108" transform="translate(-811 -1295)">
    <g id="Path_224" data-name="Path 224" transform="translate(811 1295)" fill="#f3fafa">
      <path d="M 238 160.5 L 20 160.5 C 17.36730003356934 160.5 14.81359958648682 159.9844970703125 12.40986633300781 158.9678039550781 C 10.08790016174316 157.9856719970703 8.002433776855469 156.5796051025391 6.211400032043457 154.7886047363281 C 4.420400142669678 152.9975738525391 3.014333248138428 150.9120941162109 2.03220009803772 148.5901336669922 C 1.015499949455261 146.1864013671875 0.5 143.6327056884766 0.5 141 L 0.5 20 C 0.5 17.36730003356934 1.015499949455261 14.81359958648682 2.03220009803772 12.40986633300781 C 3.014333248138428 10.08790016174316 4.420400142669678 8.002433776855469 6.211400032043457 6.211400032043457 C 8.002433776855469 4.420400142669678 10.08790016174316 3.014333248138428 12.40986633300781 2.03220009803772 C 14.81359958648682 1.015499949455261 17.36730003356934 0.5 20 0.5 L 238 0.5 C 240.6327056884766 0.5 243.1864013671875 1.015499949455261 245.5901336669922 2.03220009803772 C 247.9120941162109 3.014333248138428 249.9975738525391 4.420400142669678 251.7886047363281 6.211400032043457 C 253.5796051025391 8.002433776855469 254.9856719970703 10.08790016174316 255.9678039550781 12.40986633300781 C 256.9844970703125 14.81359958648682 257.5 17.36730003356934 257.5 20 L 257.5 141 C 257.5 143.6327056884766 256.9844970703125 146.1864013671875 255.9678039550781 148.5901336669922 C 254.9856719970703 150.9120941162109 253.5796051025391 152.9975738525391 251.7886047363281 154.7886047363281 C 249.9975738525391 156.5796051025391 247.9120941162109 157.9856719970703 245.5901336669922 158.9678039550781 C 243.1864013671875 159.9844970703125 240.6327056884766 160.5 238 160.5 Z" stroke="none"/>
      <path d="M 20 1 C 17.4345703125 1 14.94642639160156 1.502227783203125 12.60462951660156 2.492706298828125 C 10.34226989746094 3.449600219726562 8.310226440429688 4.819732666015625 6.564971923828125 6.564971923828125 C 4.819732666015625 8.310226440429688 3.449600219726562 10.34226989746094 2.492706298828125 12.60462951660156 C 1.502227783203125 14.94642639160156 1 17.4345703125 1 20 L 1 141 C 1 143.5654296875 1.502227783203125 146.0535736083984 2.492706298828125 148.3953704833984 C 3.449600219726562 150.6577301025391 4.819732666015625 152.6897735595703 6.564971923828125 154.4350280761719 C 8.310226440429688 156.1802673339844 10.34226989746094 157.5503997802734 12.60462951660156 158.5072937011719 C 14.94642639160156 159.4977722167969 17.4345703125 160 20 160 L 238 160 C 240.5654296875 160 243.0535736083984 159.4977722167969 245.3953704833984 158.5072937011719 C 247.6577301025391 157.5503997802734 249.6897735595703 156.1802673339844 251.4350280761719 154.4350280761719 C 253.1802673339844 152.6897735595703 254.5503997802734 150.6577301025391 255.5072937011719 148.3953704833984 C 256.4977722167969 146.0535736083984 257 143.5654296875 257 141 L 257 20 C 257 17.4345703125 256.4977722167969 14.94642639160156 255.5072937011719 12.60462951660156 C 254.5503997802734 10.34226989746094 253.1802673339844 8.310226440429688 251.4350280761719 6.564971923828125 C 249.6897735595703 4.819732666015625 247.6577301025391 3.449600219726562 245.3953704833984 2.492706298828125 C 243.0535736083984 1.502227783203125 240.5654296875 1 238 1 L 20 1 M 20 0 L 238 0 C 249.0457000732422 0 258 8.954299926757812 258 20 L 258 141 C 258 152.0457000732422 249.0457000732422 161 238 161 L 20 161 C 8.954299926757812 161 0 152.0457000732422 0 141 L 0 20 C 0 8.954299926757812 8.954299926757812 0 20 0 Z" stroke="none" fill="#009292"/>
    </g>
    <g id="_1814112_audio_play_player_video_icon" data-name="1814112_audio_play_player_video_icon" transform="translate(905.017 1346.445)" opacity="0.55">
      <path id="video" d="M40.522,6.351h-1.2a2.7,2.7,0,0,0-1.9.778l-3.659,3.609V9.052A4.053,4.053,0,0,0,29.716,5H4.052A4.056,4.056,0,0,0,0,9.052V30.664a4.053,4.053,0,0,0,4.052,4.052H29.716a4.054,4.054,0,0,0,4.052-4.052V29.015l3.659,3.609a2.7,2.7,0,0,0,1.9.778h1.2a2.7,2.7,0,0,0,2.7-2.7V9.052A2.7,2.7,0,0,0,40.522,6.351ZM4.052,32.015A1.352,1.352,0,0,1,2.7,30.664V9.052A1.35,1.35,0,0,1,4.052,7.7H29.716a1.352,1.352,0,0,1,1.351,1.351V30.664a1.353,1.353,0,0,1-1.351,1.351ZM40.522,30.7H39.172l-5.4-5.4v-.036L32.418,23.91v-8.1l6.754-6.754h1.351Z" transform="translate(8.983 8.838)" fill="#134563" opacity="0.5"/>
    </g>
    <g id="Add" transform="translate(-37.804 70.235)" opacity="0.44">
      <g id="Add-2" data-name="Add" transform="translate(0 198.68)">
        <line id="Line_8" data-name="Line 8" x2="15.473" transform="translate(983.5 1077.051)" fill="none" stroke="#134563" stroke-width="2"/>
        <line id="Line_9" data-name="Line 9" y2="12.977" transform="translate(991.237 1071.062)" fill="none" stroke="#134563" stroke-width="2"/>
      </g>
    </g>
  </g>
</svg>
