<svg xmlns="http://www.w3.org/2000/svg" width="32" height="25.929" viewBox="0 0 23.506 25.929"><g transform="translate(-20.999 -12.4)"><path d="M257.2,277.146c.553-.048,1.1-.014,1.653-.02a.377.377,0,0,1,.294.178c1.148,1.435,2.3,2.862,3.436,4.3a.947.947,0,0,1-.328,1.469c-.021-.2-.212-.287-.307-.444.342-.239.389-.458.15-.758-1.073-1.339-2.145-2.685-3.211-4.024a.421.421,0,0,0-.389-.178c-.328.007-.663,0-1-.007.02-.116-.061-.184-.13-.26S257.189,277.275,257.2,277.146Z" transform="translate(-220.061 -246.636)" fill="#2a2d74"/><path d="M274.954,206.863c-.738-.888-1.469-1.776-2.152-2.705a2.382,2.382,0,0,1-.424-1.318c-.02-.485,0-.97.007-1.448a.375.375,0,0,1,.253.1c.082.068.143.171.273.157,0,.321.014.649.007.97a2.313,2.313,0,0,0,.553,1.551c1.182,1.469,2.357,2.944,3.539,4.42.041.055.075.109.116.171-.13.021-.2-.061-.28-.143l-1.489-1.489A.741.741,0,0,0,274.954,206.863Z" transform="translate(-234.199 -176.08)" fill="#2a2d74"/><path d="M272.84,103.338c-.13.014-.191-.089-.273-.157a.356.356,0,0,0-.253-.1,1.111,1.111,0,0,1-.014-.15V96.028a1.111,1.111,0,0,1,.014-.15c.109-.014.171.061.232.13a.508.508,0,0,0,.294.178c.007.956.007,1.92.007,2.876C272.853,100.489,272.846,101.91,272.84,103.338Z" transform="translate(-234.134 -77.774)" fill="#2a2d74"/><path d="M71.417,117.12c-.547.061-1.1.014-1.646.027a6.021,6.021,0,0,1-.608,0,.371.371,0,0,0-.4.2c-.116-.137-.191-.314-.41-.321a.291.291,0,0,0-.034-.328c-.28-.478-.574-.95-.827-1.441-.157-.3-.342-.465-.69-.4a.653.653,0,0,1-.2-.02.32.32,0,0,0-.116-.26c-.075-.075-.178-.13-.191-.253a2.655,2.655,0,0,1,.328-.007c.417.061.751-.014.895-.465.007-.02.034-.034.048-.055.048.2.212.294.383.376-.26.28-.184.54.007.833.294.444.547.915.8,1.387a.39.39,0,0,0,.4.225c.628-.007,1.257,0,1.885.007C71.116,116.833,71.362,116.908,71.417,117.12Z" transform="translate(-42.207 -94.473)" fill="#2a2d74"/><path d="M53,54.12c.669-.041,1.346-.007,2.015-.014.157,0,.239.109.307.232.348.608.71,1.2,1.045,1.817a.414.414,0,0,0,.444.253c.225-.014.458,0,.69.007a.273.273,0,0,0,.137.246.285.285,0,0,1,.116.28,5.232,5.232,0,0,1-.731.007c-.342-.034-.608.027-.745.376-.157-.082-.246-.273-.451-.26a.607.607,0,0,0-.02-.813c-.294-.451-.553-.929-.813-1.407a.33.33,0,0,0-.342-.191c-.465.007-.929,0-1.4-.007a.282.282,0,0,0-.116-.239A.385.385,0,0,1,53,54.12Z" transform="translate(-29.815 -38.85)" fill="#2a2d74"/><path d="M252.7,12.427a.794.794,0,0,1,.123-.027c.758.007,1.517,0,2.268.027a1.355,1.355,0,0,1,1.277,1.346,1.377,1.377,0,0,1-1.223,1.373,1.764,1.764,0,0,1-.656,0c-.027-.219-.3-.28-.307-.512.239,0,.478-.007.717-.007a.844.844,0,1,0,0-1.681c-.615-.007-1.223-.007-1.838-.007,0-.1-.089-.15-.143-.219C252.837,12.625,252.714,12.564,252.7,12.427Z" transform="translate(-215.873 0)" fill="#2a2d74"/><path d="M98.227,337.021a2.164,2.164,0,0,0,.143,1.687,2.128,2.128,0,0,0,1.967,1.209c.328.014.663.007.991.014,0,.1.089.15.143.219.075.1.2.15.212.294a8.117,8.117,0,0,1-1.954-.055,2.712,2.712,0,0,1-2.145-2.582A2.076,2.076,0,0,1,97.8,336.7C97.975,336.768,98.077,336.925,98.227,337.021Z" transform="translate(-71.354 -302.146)" fill="#2a2d74"/><path d="M25.378,149.92c-.061.075-.15.061-.239.061-.827,0-1.653,0-2.48.007a.368.368,0,0,1-.369-.212c-.4-.7-.8-1.4-1.209-2.1a.41.41,0,0,1,0-.492c.13-.191.239-.389.355-.587.116.13.348.157.369.383-.014.1-.1.157-.137.239a.317.317,0,0,0-.027.355c.348.574.676,1.161,1.011,1.742a.239.239,0,0,0,.239.143c.724-.007,1.448-.007,2.172-.007C25.077,149.667,25.35,149.715,25.378,149.92Z" transform="translate(0 -125.032)" fill="#2a2d74"/><path d="M24.167,79.008c.007.123.116.178.191.253a.285.285,0,0,1,.116.26c-.485.055-.977.014-1.462.021-.123,0-.232.007-.3.13-.2,0-.246-.26-.444-.266a.317.317,0,0,0-.048-.328c-.355-.608-.7-1.223-1.059-1.831a.43.43,0,0,1-.007-.519c.178-.273.335-.553.5-.827.1.15.2.307.4.348-.1.171-.171.348-.28.506a.37.37,0,0,0,.007.465c.321.533.628,1.073.929,1.612a.294.294,0,0,0,.3.178C23.382,78.995,23.778,79.008,24.167,79.008Z" transform="translate(-0.067 -59.162)" fill="#2a2d74"/><path d="M160.121,16.823c-.9,0-1.8.02-2.705-.007a1.35,1.35,0,0,1-.335-2.616c.15.109.328.2.335.424a2.628,2.628,0,0,0-.342.164.826.826,0,0,0-.307.929.846.846,0,0,0,.813.581c.745.007,1.489.007,2.241.014-.014.116.061.178.13.253S160.121,16.693,160.121,16.823Z" transform="translate(-125.951 -1.677)" fill="#2a2d74"/><path d="M310.2,281.5a.766.766,0,0,1,.4.253l1.489,1.489c.075.075.15.164.28.143.369.465.772.909,1.107,1.394a2.49,2.49,0,0,1,.335,2.3c-.171-.068-.239-.3-.458-.273a2.359,2.359,0,0,0-.547-2.036c-.861-1.038-1.694-2.1-2.534-3.156C310.241,281.575,310.221,281.534,310.2,281.5Z" transform="translate(-269.445 -250.717)" fill="#2a2d74"/><path d="M169.635,13.319c-.007-.225-.184-.314-.335-.424a.569.569,0,0,1,.362-.1H175c.007.143.137.2.212.294.055.068.143.116.143.219-.1,0-.2.007-.307.007Z" transform="translate(-138.17 -0.373)" fill="#2a2d74"/><path d="M126.848,336.452c-.84,0-1.68.014-2.528.007a.972.972,0,0,1-.758-1.53c.157-.219.342-.424.512-.629.068.171.287.225.314.43-.13.171-.266.342-.389.519a.39.39,0,0,0-.014.458.431.431,0,0,0,.417.212c.731-.007,1.462.007,2.193.007a.3.3,0,0,0,.123.28A.281.281,0,0,1,126.848,336.452Z" transform="translate(-95.383 -299.91)" fill="#2a2d74"/><path d="M119.031,88.24a.314.314,0,0,0-.116-.28.273.273,0,0,1-.137-.246c.485-.007.97-.007,1.448-.014a.359.359,0,0,1,.328.2c.417.717.827,1.441,1.243,2.159a.358.358,0,0,1-.007.424c-.082.123-.164.26-.246.383a1.4,1.4,0,0,1-.376-.376.391.391,0,0,0-.027-.478c-.314-.512-.608-1.032-.9-1.558a.344.344,0,0,0-.355-.212C119.611,88.26,119.318,88.24,119.031,88.24Z" transform="translate(-91.098 -70.156)" fill="#2a2d74"/><path d="M209.585,45.612c0-.123-.1-.184-.178-.26s-.143-.137-.13-.253h4.447c0,.232.28.294.307.512Z" transform="translate(-175.416 -30.466)" fill="#2a2d74"/><path d="M182.407,64.373c0-1.086-.007-2.179-.007-3.265,0-.178.082-.307.266-.307s.26.123.26.307c-.007,1.189-.007,2.377-.007,3.573C182.687,64.68,182.612,64.414,182.407,64.373Z" transform="translate(-150.375 -45.094)" fill="#2a2d74"/><path d="M287.108,357.8c.1.15.28.239.307.444a.809.809,0,0,1-.417.109c-.847,0-1.7-.007-2.548-.007.007-.219-.26-.307-.253-.526.1-.007.2-.014.3-.014C285.366,357.807,286.241,357.807,287.108,357.8Z" transform="translate(-245.219 -321.805)" fill="#2a2d74"/><path d="M182.5,113.1c.2.041.28.307.512.307v3.122a.307.307,0,0,1-.26-.123c-.075-.075-.13-.178-.253-.184Z" transform="translate(-150.469 -93.821)" fill="#2a2d74"/><path d="M247.194,357.89c-.007.219.26.307.253.526h-2.657c.021-.13-.082-.191-.157-.273s-.164-.13-.15-.253C245.384,357.87,246.286,357.87,247.194,357.89Z" transform="translate(-208.215 -321.874)" fill="#2a2d74"/><path d="M170.724,358.38a.281.281,0,0,0-.13-.246.312.312,0,0,1-.123-.28c.888-.027,1.769-.02,2.657,0a.289.289,0,0,0,.123.28.273.273,0,0,1,.137.246Z" transform="translate(-139.26 -321.838)" fill="#2a2d74"/><path d="M152.855,384.512c-.007-.143-.137-.2-.212-.294-.055-.068-.143-.116-.143-.219h2.91c0,.1.089.15.143.219.075.1.2.15.212.294Z" transform="translate(-122.518 -346.215)" fill="#2a2d74"/><path d="M307.274,380.489a2.517,2.517,0,0,1-1.373.4,7.942,7.942,0,0,1-1.141-.014c0-.116-.1-.171-.157-.239s-.164-.143-.144-.273c.567-.041,1.134.027,1.7-.041a3.183,3.183,0,0,0,.751-.225A1.518,1.518,0,0,1,307.274,380.489Z" transform="translate(-264.094 -342.581)" fill="#2a2d74"/><path d="M272.84,63.6a.545.545,0,0,1-.294-.178c-.062-.068-.123-.143-.232-.13-.007-.7-.014-1.394-.014-2.09,0-.178.089-.3.273-.3s.273.123.273.3C272.846,61.993,272.846,62.8,272.84,63.6Z" transform="translate(-234.134 -45.187)" fill="#2a2d74"/><path d="M209.531,358.416a.273.273,0,0,0-.137-.246.312.312,0,0,1-.123-.28c.8-.021,1.6-.021,2.4,0-.014.123.082.178.15.253s.178.143.157.273Z" transform="translate(-175.409 -321.874)" fill="#2a2d74"/><path d="M195.555,384.512c-.007-.143-.137-.2-.212-.294-.055-.068-.143-.116-.143-.219h2.555c0,.1.089.15.143.219.075.1.2.15.212.294Z" transform="translate(-162.301 -346.215)" fill="#2a2d74"/><path d="M29.9,56.031c-.2-.041-.294-.2-.4-.348.253-.444.5-.881.751-1.325a.307.307,0,0,1,.273-.157c.191,0,.389.007.581.014a.423.423,0,0,0,.137.287.274.274,0,0,1,.116.239c-.143,0-.287.021-.43.007a.375.375,0,0,0-.417.239C30.32,55.341,30.1,55.682,29.9,56.031Z" transform="translate(-7.92 -38.945)" fill="#2a2d74"/><path d="M168.2,278.075c.2-.267.417-.533.622-.8a.335.335,0,0,1,.28-.15,8.788,8.788,0,0,1,1.038.02c.034.212.273.3.307.519-.321,0-.649.014-.97.007a.46.46,0,0,0-.451.2,6.5,6.5,0,0,1-.519.628C168.5,278.293,168.248,278.259,168.2,278.075Z" transform="translate(-137.145 -246.636)" fill="#2a2d74"/><path d="M270.207,384c-.021.13.075.191.143.273s.164.123.157.239h-2.5c-.034-.212-.3-.28-.307-.512Z" transform="translate(-229.848 -346.215)" fill="#2a2d74"/><path d="M80.814,163.243c-.027-.2-.294-.253-.314-.471.362-.622.724-1.25,1.093-1.872.219.007.294.184.41.321A21.2,21.2,0,0,1,80.814,163.243Z" transform="translate(-55.436 -138.356)" fill="#2a2d74"/><path d="M137.316,128.6a1.313,1.313,0,0,0,.376.376c-.342.594-.676,1.2-1.018,1.79a.231.231,0,0,1-.219.143c-.055-.212-.307-.287-.355-.506.157.014.219-.089.287-.2C136.687,129.666,137,129.133,137.316,128.6Z" transform="translate(-107.238 -108.262)" fill="#2a2d74"/><path d="M148.635,291.1c.055.178.3.219.314.424-.444.594-.9,1.168-1.387,1.728a.558.558,0,0,0-.362-.369C147.658,292.282,148.136,291.681,148.635,291.1Z" transform="translate(-117.58 -259.661)" fill="#2a2d74"/><path d="M235,384c.007.225.273.3.307.512h-2.35c-.007-.143-.137-.2-.212-.294-.055-.068-.143-.116-.143-.219Z" transform="translate(-197.146 -346.215)" fill="#2a2d74"/><path d="M196.907,277.634c-.034-.212-.273-.3-.307-.519a19.542,19.542,0,0,1,2.1,0c-.007.116.089.171.157.246s.171.143.15.273Z" transform="translate(-163.605 -246.605)" fill="#2a2d74"/><path d="M227.6,277.634c.02-.13-.075-.191-.15-.273s-.164-.123-.157-.246a18.663,18.663,0,0,1,2.049,0c-.007.13.1.184.171.266s.15.137.13.26C228.962,277.634,228.286,277.634,227.6,277.634Z" transform="translate(-192.203 -246.605)" fill="#2a2d74"/><path d="M182.314,158.7c.123.007.178.116.253.184a.317.317,0,0,0,.26.123c0,.6.007,1.2.007,1.8,0,.178-.068.3-.266.3s-.266-.123-.266-.3C182.307,160.107,182.307,159.4,182.314,158.7Z" transform="translate(-150.282 -136.306)" fill="#2a2d74"/><path d="M101.224,315.406c-.15-.089-.253-.253-.424-.321a2.056,2.056,0,0,1,.43-.738c.225-.287.465-.567.69-.847a1.663,1.663,0,0,1,.4.328c-.212.273-.424.553-.642.82A3.7,3.7,0,0,0,101.224,315.406Z" transform="translate(-74.35 -280.531)" fill="#2a2d74"/><path d="M117.6,293.7a1.515,1.515,0,0,0-.4-.328c.376-.506.765-1,1.175-1.476.2.007.28.2.444.273C118.416,292.686,118.006,293.2,117.6,293.7Z" transform="translate(-89.629 -260.406)" fill="#2a2d74"/><path d="M340.576,360.987a1.256,1.256,0,0,0-.376-.383,2.465,2.465,0,0,0,1.1-1.435c.225-.027.294.2.458.273a2.671,2.671,0,0,1-.929,1.38C340.746,360.884,340.658,360.932,340.576,360.987Z" transform="translate(-297.396 -323.079)" fill="#2a2d74"/><path d="M134.944,271.956c-.164-.068-.246-.266-.444-.273.376-.512.772-1,1.182-1.482.184.041.26.219.41.314C135.73,271.013,135.34,271.484,134.944,271.956Z" transform="translate(-105.748 -240.189)" fill="#2a2d74"/><path d="M152.21,251.607c-.143-.1-.225-.273-.41-.314.328-.417.656-.84.991-1.257a.265.265,0,0,1,.4-.062.261.261,0,0,1,.027.389C152.886,250.787,152.545,251.2,152.21,251.607Z" transform="translate(-121.866 -221.282)" fill="#2a2d74"/><path d="M306.836,72.512h-.615c-.184,0-.321-.082-.321-.28s.13-.266.307-.273c.41,0,.82-.007,1.23,0a.259.259,0,0,1,.294.28c-.007.184-.13.266-.307.273Z" transform="translate(-265.439 -55.487)" fill="#2a2d74"/><path d="M306.809,189.026h-.615a.258.258,0,0,1-.294-.273c0-.178.123-.253.287-.253h1.25c.164,0,.287.068.294.246a.254.254,0,0,1-.287.28Z" transform="translate(-265.439 -164.07)" fill="#2a2d74"/><path d="M306.8,130.849h-.635a.243.243,0,0,1-.273-.239.25.25,0,0,1,.26-.28c.43-.007.868-.007,1.3,0a.264.264,0,1,1-.014.526c-.212-.007-.424-.007-.635-.007Z" transform="translate(-265.434 -109.869)" fill="#2a2d74"/><path d="M28.165,127.3c.2.007.239.266.437.266-.266.485-.533.97-.833,1.435-.02-.225-.253-.246-.369-.383A14.734,14.734,0,0,1,28.165,127.3Z" transform="translate(-5.964 -107.051)" fill="#2a2d74"/><path d="M134.529,317.3a.532.532,0,0,1,.362.369c-.342.4-.608.84-.977,1.216-.027-.2-.246-.26-.314-.43C133.894,318.058,134.2,317.676,134.529,317.3Z" transform="translate(-104.909 -284.071)" fill="#2a2d74"/><path d="M178.511,221.266a2.5,2.5,0,0,1-.328.984.259.259,0,0,1-.355.1.237.237,0,0,1-.13-.321,4.085,4.085,0,0,0,.287-.888.235.235,0,0,1,.287-.191C178.436,220.979,178.511,221.081,178.511,221.266Z" transform="translate(-145.974 -194.301)" fill="#2a2d74"/><path d="M306.51,101.67a3.079,3.079,0,0,1-.355,0,.262.262,0,0,1-.26-.287.251.251,0,0,1,.266-.253c.239-.007.471-.007.71,0a.258.258,0,0,1,.273.273.255.255,0,0,1-.253.266,3.57,3.57,0,0,1-.383,0Z" transform="translate(-265.434 -82.664)" fill="#2a2d74"/><path d="M306.51,159.949h-.355a.242.242,0,0,1-.26-.253.235.235,0,0,1,.246-.266c.253-.007.505-.007.765,0a.26.26,0,0,1-.007.519Z" transform="translate(-265.434 -136.981)" fill="#2a2d74"/><path d="M131.913,288.985c.362-.376.635-.827.977-1.216.478-.56.943-1.141,1.387-1.728.171-.212.362-.41.519-.629a.46.46,0,0,1,.451-.2c.321.014.649,0,.97-.007h4.14c.335,0,.663.014,1,.007a.436.436,0,0,1,.389.178c1.066,1.346,2.145,2.685,3.211,4.024.239.3.2.519-.15.758-.868,0-1.742,0-2.61.007-.1,0-.2.007-.3.014-.9-.02-1.8-.02-2.712,0-.8-.02-1.6-.02-2.4,0-.888-.02-1.769-.027-2.657,0-.731-.007-1.462-.014-2.193-.007a.444.444,0,0,1-.417-.212.4.4,0,0,1,.014-.458A5.8,5.8,0,0,1,131.913,288.985Z" transform="translate(-102.901 -254.164)" fill="#fff"/><path d="M29.924,130.585c.3-.465.574-.95.833-1.435.068-.123.178-.123.3-.13.485-.007.977.034,1.462-.02a.676.676,0,0,0,.2.02c.348-.068.533.1.69.4.253.492.54.963.827,1.441a.291.291,0,0,1,.034.328c-.362.622-.724,1.25-1.093,1.872-.724,0-1.448,0-2.172.007a.239.239,0,0,1-.239-.143c-.335-.581-.663-1.168-1.011-1.742a.344.344,0,0,1,.027-.355C29.828,130.742,29.91,130.68,29.924,130.585Z" transform="translate(-8.119 -108.635)" fill="#fff"/><path d="M30.4,63.3c.2-.348.43-.69.615-1.052a.375.375,0,0,1,.417-.239,3.017,3.017,0,0,0,.43-.007c.465,0,.929.014,1.4.007a.331.331,0,0,1,.342.191c.26.478.519.95.813,1.407a.607.607,0,0,1,.02.813c-.225.369-.444.731-.635,1.114-.021.021-.041.034-.048.055-.143.451-.478.526-.895.465a1.753,1.753,0,0,0-.328.007c-.389,0-.786-.014-1.175-.007a.3.3,0,0,1-.3-.178c-.3-.54-.615-1.079-.929-1.612a.37.37,0,0,1-.007-.465C30.227,63.646,30.309,63.469,30.4,63.3Z" transform="translate(-8.429 -46.212)" fill="#fff"/><path d="M92.739,97.741c-.314.533-.628,1.066-.936,1.6-.068.116-.13.219-.287.2-.628,0-1.257-.014-1.885-.007a.39.39,0,0,1-.4-.225c-.253-.471-.512-.943-.8-1.387-.191-.294-.266-.553-.007-.833.253-.4.492-.806.71-1.23.137-.348.4-.41.745-.376a5.231,5.231,0,0,0,.731-.007c.287.007.574.02.861.007a.344.344,0,0,1,.355.212c.294.526.587,1.045.9,1.558A.422.422,0,0,1,92.739,97.741Z" transform="translate(-62.662 -77.403)" fill="#fff"/><path d="M86.093,97.65a12.219,12.219,0,0,1-.71,1.23c-.171-.082-.335-.171-.383-.376a11.985,11.985,0,0,1,.635-1.114C85.847,97.377,85.936,97.568,86.093,97.65Z" transform="translate(-59.629 -79.184)" fill="#2a2d74"/><path d="M171.563,21.994h-4.447c-.745,0-1.489,0-2.241-.014a.854.854,0,0,1-.813-.581.83.83,0,0,1,.307-.929,2.628,2.628,0,0,1,.342-.164h5.417c.1,0,.2-.007.307-.007.615,0,1.223.007,1.838.007a.844.844,0,1,1,0,1.68C172.041,21.987,171.8,21.987,171.563,21.994Z" transform="translate(-133.254 -7.36)" fill="#fff"/></g></svg>