<svg xmlns="http://www.w3.org/2000/svg" width="33.763" height="25.75" viewBox="0 0 33.763 25.75">
  <g id="_2315601_computer_display_graph_introduction_logistics_icon" data-name="2315601_computer_display_graph_introduction_logistics_icon" transform="translate(-84.97 -119.937)">
    <path id="Path_1536" data-name="Path 1536" d="M121.676,191.275a3.856,3.856,0,1,1-3.856-3.857A3.856,3.856,0,0,1,121.676,191.275Z" transform="translate(-26.178 -60.927)" fill="#2a2d74"/>
    <path id="Path_1537" data-name="Path 1537" d="M89.413,246.018l2.229,2.432,2.6-2.6a16.8,16.8,0,0,0,9.437-3.169,1.726,1.726,0,0,1,2.667.688s.77,2.247-1.929,3.236c0,0-5.967,3.47-7.878,3.587v5.969H84.97v-5.984S85.07,246.488,89.413,246.018Z" transform="translate(0 -110.475)" fill="#2a2d74"/>
    <path id="Path_1538" data-name="Path 1538" d="M174.353,126.14l-1.525-.872v-4.141s.284-1.156,1.323-1.19h22.666s1.274.168,1.24,1.358v17.049a1.148,1.148,0,0,1-1.273,1.022c-1.157-.084-15.34,0-15.34,0l2.665-1.341h12.355V121.412H174.37Z" transform="translate(-79.324)" fill="#2a2d74"/>
    <path id="Path_1539" data-name="Path 1539" d="M234.355,184.955l-.771-1.29,4.424-2.7a.816.816,0,0,1,1.275,0l2.8,2.163,3.6-3.068-1.006-.922,3.269-.353-.184,3.269-1.024-1.022-4.174,3.487s-.5.57-1.174-.135l-2.8-2.178Z" transform="translate(-134.179 -53.133)" fill="#2a2d74"/>
  </g>
</svg>
