<svg xmlns="http://www.w3.org/2000/svg" width="32" height="27.601" viewBox="0 0 25.876 27.601"><g transform="translate(-1)"><path d="M23.426,0H4.45A3.45,3.45,0,0,0,1,3.45v20.7A3.45,3.45,0,0,0,4.45,27.6H23.426a3.45,3.45,0,0,0,3.45-3.45V3.45A3.45,3.45,0,0,0,23.426,0Zm1.725,24.151a1.728,1.728,0,0,1-1.725,1.725H4.45a1.727,1.727,0,0,1-1.725-1.725V3.45A1.727,1.727,0,0,1,4.45,1.725H23.426A1.727,1.727,0,0,1,25.151,3.45Z" fill="#2a2d74"/><path d="M23.113,4H5.863A.862.862,0,0,0,5,4.863V20.388a.862.862,0,0,0,.863.863H23.113a.862.862,0,0,0,.863-.863V4.863A.862.862,0,0,0,23.113,4Zm0,.863V16.825l-2.8-3.045a.862.862,0,0,0-1.294,0L16.77,16.325,9.96,8.605a.862.862,0,0,0-1.294,0l-2.8,3.233V4.863ZM5.863,13.143l3.45-3.968,6.957,7.886.5.568,2.382,2.759H5.863ZM20.3,20.388l-2.957-3.411,2.318-2.626,3.45,3.777v2.261Z" transform="translate(-0.55 -0.55)" fill="#2a2d74"/><path d="M19.588,12.175A2.588,2.588,0,1,0,17,9.588,2.588,2.588,0,0,0,19.588,12.175Zm0-4.313a1.725,1.725,0,1,1-1.725,1.725A1.727,1.727,0,0,1,19.588,7.863Z" transform="translate(-2.199 -0.962)" fill="#2a2d74"/></g></svg>