<svg xmlns="http://www.w3.org/2000/svg" width="163" height="142" viewBox="0 0 163 142">
  <g id="Group_110" data-name="Group 110" transform="translate(-109 -245.959)">
    <g id="Rectangle_97" data-name="Rectangle 97" transform="translate(109 245.959)" fill="#fff" stroke="#707070" stroke-width="1">
      <rect width="163" height="142" rx="15" stroke="none"/>
      <rect x="0.5" y="0.5" width="162" height="141" rx="14.5" fill="none"/>
    </g>
    <g id="_1814111_image_photograph_picture_icon" data-name="1814111_image_photograph_picture_icon" transform="translate(166.549 298.659)">
      <g id="Icon-Image">
        <path id="Fill-12" d="M-226.2-181.6h-39.5a4.225,4.225,0,0,1-4.2-4.2V-214a4.225,4.225,0,0,1,4.2-4.2h39.5A4.225,4.225,0,0,1-222-214v28.2a4.225,4.225,0,0,1-4.2,4.2Zm-39.6-33.9a1.367,1.367,0,0,0-1.4,1.4v28.2a1.367,1.367,0,0,0,1.4,1.4h39.5a1.367,1.367,0,0,0,1.4-1.4v-28.2a1.367,1.367,0,0,0-1.4-1.4Z" transform="translate(269.9 218.2)" fill="#707070"/>
        <path id="Fill-13" d="M-238.9-201.5a5.484,5.484,0,0,1-5.5-5.5,5.549,5.549,0,0,1,5.5-5.5,5.549,5.549,0,0,1,5.5,5.5,5.549,5.549,0,0,1-5.5,5.5Zm0-8.5a2.9,2.9,0,0,0-2.9,2.9,2.9,2.9,0,0,0,2.9,2.9,2.9,2.9,0,0,0,2.9-2.9,2.9,2.9,0,0,0-2.9-2.9Z" transform="translate(269.9 218.2)" fill="#707070"/>
        <path id="Fill-14" d="M-231.4-182.1l-23.1-21.7-13.2,12.2-1.8-1.9,15-13.9,24.9,23.4-1.8,1.9" transform="translate(269.9 218.2)" fill="#707070"/>
        <path id="Fill-15" d="M-224.2-189.3l-7.7-6.2-6.4,5.3-1.7-2.1,8.1-6.6,9.3,7.6-1.6,2" transform="translate(269.9 218.2)" fill="#707070"/>
      </g>
    </g>
  </g>
</svg>
