<svg xmlns="http://www.w3.org/2000/svg" width="32" height="25.491" viewBox="0 0 18.841 25.491">
  <path id="_290138_document_extension_file_format_paper_icon" data-name="290138_document_extension_file_format_paper_icon" d="M23.624,26.491H9.217A2.217,2.217,0,0,1,7,24.274V3.217A2.217,2.217,0,0,1,9.217,1H19.745a.545.545,0,0,1,.43.219l5.447,5.447a.544.544,0,0,1,.219.43h0V24.274A2.217,2.217,0,0,1,23.624,26.491ZM20.3,2.874V6.541h3.668ZM24.733,7.65H19.745a.554.554,0,0,1-.554-.554V2.108H9.217A1.109,1.109,0,0,0,8.108,3.217V24.274a1.109,1.109,0,0,0,1.108,1.108H23.624a1.109,1.109,0,0,0,1.108-1.108ZM21.408,22.057H11.433a.554.554,0,1,1,0-1.108h9.975a.554.554,0,1,1,0,1.108Zm0-4.433H11.433a.554.554,0,1,1,0-1.108h9.975a.554.554,0,1,1,0,1.108Zm0-4.433H11.433a.554.554,0,0,1,0-1.108h9.975a.554.554,0,0,1,0,1.108Z" transform="translate(-7 -1)" fill="#2a2d74" fill-rule="evenodd"/>
</svg>
