<svg xmlns="http://www.w3.org/2000/svg" width="23.74" height="23.703" viewBox="0 0 23.74 23.703"><path d="M57,236.876v-8a1.242,1.242,0,0,1,1.371-1.377H72.813a1.239,1.239,0,0,1,1.371,1.377v8Zm10.229-2.857a1.637,1.637,0,1,0-1.63,1.65A1.637,1.637,0,0,0,67.229,234.019Zm-5.2-4.085c.484-.47.921-.9,1.337-1.3l-.539-.6c-.552.552-1.091,1.077-1.616,1.623-.2.2-.17.409.041.627.348.355.7.7,1.043,1.05.177.177.334.375.5.559.239-.232.423-.409.614-.593C62.967,230.855,62.523,230.419,62.032,229.934Zm5.7-1.3L69.117,230l-1.33,1.309c.17.177.355.361.546.559l1.555-1.555c.266-.273.266-.464-.007-.736-.471-.471-.941-.941-1.412-1.4-.048-.048-.1-.082-.13-.109C68.149,228.25,67.958,228.421,67.733,228.639Zm-1.241-.566c-.825,1.1-1.637,2.182-2.455,3.266.232.171.43.32.655.491.825-1.1,1.637-2.175,2.448-3.26-.082-.068-.15-.123-.218-.17C66.792,228.3,66.656,228.2,66.492,228.073Z" transform="translate(-53.72 -213.194)" fill="#fff"/><path d="M90.845,23.169a8.486,8.486,0,0,0-1.691-3.2c-.164-.252-.4-.273-.661-.075-.334.259-.661.532-1,.791a3.306,3.306,0,0,1-2.039.709,4.264,4.264,0,0,0-2.421.764c-.893.607-1.8,1.2-2.721,1.814-.239-.518-.5-1-.709-1.514a1.021,1.021,0,0,1,.007-.668,1.889,1.889,0,0,0-1.152-2.5.258.258,0,0,1-.055-.048c.055-.034.109-.075.164-.1a12.954,12.954,0,0,1,5.7-1.418c1.227-.02,2.455-.014,3.682-.007a3.411,3.411,0,0,1,3.232,4.548C91.07,22.562,90.954,22.862,90.845,23.169Z" transform="translate(-73.661 -17.7)" fill="#fff"/><path d="M116.92,137.8h.8v1.125a1.233,1.233,0,0,0,1.309,1.316h.689a1.223,1.223,0,0,0,1.275-1.268v-.348h.818v.4a1.223,1.223,0,0,0,1.2,1.214c.286.007.58.007.866,0a1.223,1.223,0,0,0,1.2-1.214c.007-.4,0-.8,0-1.221h.839c-.061.552-.1,1.1-.191,1.643a10.544,10.544,0,0,1-1.234,3.437.353.353,0,0,1-.355.218c-1.834-.007-3.662-.007-5.5-.007-.13,0-.232,0-.314-.143A10.721,10.721,0,0,1,116.9,137.9.259.259,0,0,0,116.92,137.8Z" transform="translate(-109.535 -129.61)" fill="#fff"/><path d="M124.426,63a4.886,4.886,0,0,1,1.3,4.276H122.3c-.5,0-.607.109-.607.593v.225h-.818v-.252c0-.436-.13-.566-.559-.566h-3.491c-.109-.5-.089-.566.307-.825.716-.477,1.432-.948,2.148-1.432a3.3,3.3,0,0,1,1.814-.6,4.347,4.347,0,0,0,2.864-1.043C124.112,63.245,124.283,63.116,124.426,63Z" transform="translate(-109.41 -59.911)" fill="#fff"/><path d="M8.9,288.405a10.673,10.673,0,0,1,.211-2.953,4.519,4.519,0,0,1,2.223-2.653v5.605Z" transform="translate(-8.9 -264.723)" fill="#fff"/><path d="M323.734,288.519H321.3V282.9a4.136,4.136,0,0,1,1.234.927,4.445,4.445,0,0,1,1.2,3.007C323.741,287.394,323.734,287.939,323.734,288.519Z" transform="translate(-299.997 -264.816)" fill="#fff"/><path d="M142.513,137.9c0,.423.014.839-.007,1.248a.381.381,0,0,1-.409.368c-.273.007-.546.014-.818,0a.378.378,0,0,1-.4-.389c-.014-.4-.007-.812-.007-1.227Z" transform="translate(-131.876 -129.703)" fill="#fff"/><path d="M200.959,137.8h1.63c0,.43.014.852-.007,1.275a.372.372,0,0,1-.4.348q-.409.01-.818,0a.391.391,0,0,1-.4-.4C200.952,138.618,200.959,138.223,200.959,137.8Z" transform="translate(-187.859 -129.61)" fill="#fff"/><path d="M93.587,137.684c.055.593.116,1.166.177,1.828a11.309,11.309,0,0,1-.866-.791.572.572,0,0,1-.014-.7A.712.712,0,0,1,93.587,137.684Z" transform="translate(-87.055 -129.501)" fill="#fff"/><path d="M258.7,139.754c.061-.621.116-1.193.17-1.766a.637.637,0,0,1,.716.327.665.665,0,0,1-.123.818,3.041,3.041,0,0,1-.273.232C259.041,139.488,258.891,139.6,258.7,139.754Z" transform="translate(-241.666 -129.771)" fill="#fff"/><path d="M162.273,301.015a1.637,1.637,0,1,1-1.657-1.616A1.639,1.639,0,0,1,162.273,301.015Zm-1.65.832a.828.828,0,0,0,.832-.8.815.815,0,1,0-.832.8Z" transform="translate(-148.765 -280.19)" fill="#fff"/><path d="M117.824,237.2c.491.484.927.921,1.377,1.364-.191.184-.375.361-.614.593-.164-.184-.32-.375-.5-.559-.341-.355-.7-.7-1.043-1.05-.211-.218-.232-.43-.041-.627.525-.539,1.071-1.071,1.616-1.623l.539.6C118.752,236.3,118.308,236.732,117.824,237.2Z" transform="translate(-109.512 -220.462)" fill="#fff"/><path d="M214.4,236.373c.225-.211.409-.389.607-.573a.845.845,0,0,1,.13.109c.47.47.941.934,1.411,1.4.273.28.28.47.007.736-.511.518-1.03,1.03-1.555,1.555-.2-.2-.375-.382-.546-.559.436-.43.873-.866,1.33-1.309C215.3,237.259,214.857,236.816,214.4,236.373Z" transform="translate(-200.387 -220.928)" fill="#fff"/><path d="M162.748,235.9c.164.123.3.218.436.321.068.048.13.1.218.17-.818,1.084-1.63,2.169-2.448,3.26-.218-.164-.423-.32-.655-.491C161.111,238.082,161.916,237,162.748,235.9Z" transform="translate(-149.976 -221.021)" fill="#fff"/><path d="M171.8,313.025a.815.815,0,1,1,.825-.8A.818.818,0,0,1,171.8,313.025Z" transform="translate(-159.945 -291.368)" fill="#fff"/></svg>