<svg xmlns="http://www.w3.org/2000/svg" width="128" height="128" viewBox="0 0 28 28"><g transform="translate(-3 -3)"><path d="M9.111,6H6V9.111H9.111Z" transform="translate(1.667 1.667)" fill="#000"/><path d="M3,6.5A3.5,3.5,0,0,1,6.5,3h5.444a3.5,3.5,0,0,1,3.5,3.5v5.444a3.5,3.5,0,0,1-3.5,3.5H6.5a3.5,3.5,0,0,1-3.5-3.5ZM6.5,5.333A1.167,1.167,0,0,0,5.333,6.5v5.444A1.167,1.167,0,0,0,6.5,13.111h5.444a1.167,1.167,0,0,0,1.167-1.167V6.5a1.167,1.167,0,0,0-1.167-1.167Z" transform="translate(0 0)" fill="#000"/><path d="M6,16H9.111v3.111H6Z" transform="translate(1.667 7.222)" fill="#000"/><path d="M3,16.5A3.5,3.5,0,0,1,6.5,13h5.444a3.5,3.5,0,0,1,3.5,3.5v5.444a3.5,3.5,0,0,1-3.5,3.5H6.5a3.5,3.5,0,0,1-3.5-3.5Zm3.5-1.167A1.167,1.167,0,0,0,5.333,16.5v5.444A1.167,1.167,0,0,0,6.5,23.111h5.444a1.167,1.167,0,0,0,1.167-1.167V16.5a1.167,1.167,0,0,0-1.167-1.167Z" transform="translate(0 5.556)" fill="#000"/><path d="M19.111,6H16V9.111h3.111Z" transform="translate(7.222 1.667)" fill="#000"/><path d="M16.5,3A3.5,3.5,0,0,0,13,6.5v5.444a3.5,3.5,0,0,0,3.5,3.5h5.444a3.5,3.5,0,0,0,3.5-3.5V6.5a3.5,3.5,0,0,0-3.5-3.5ZM15.333,6.5A1.167,1.167,0,0,1,16.5,5.333h5.444A1.167,1.167,0,0,1,23.111,6.5v5.444a1.167,1.167,0,0,1-1.167,1.167H16.5a1.167,1.167,0,0,1-1.167-1.167Z" transform="translate(5.556 0)" fill="#000"/><path d="M13,13h4.278v4.278H13Z" transform="translate(5.556 5.556)" fill="#000"/><path d="M21.167,15.75H17.278v3.889H13v4.278h4.278V19.639h3.889v4.278h4.278V19.639H21.167Z" transform="translate(5.556 7.083)" fill="#000"/><path d="M18.25,17.278V13h4.278v4.278Z" transform="translate(8.472 5.556)" fill="#000"/></g></svg>