<svg xmlns="http://www.w3.org/2000/svg" width="25.154" height="20.64" viewBox="0 0 25.154 20.64"><path d="M32,34.876v-.559a1.233,1.233,0,1,0-2.467,0v.559a1.233,1.233,0,1,0,2.467,0Z" transform="translate(-18.193 -22.221)" fill="#fff"/><path d="M22.039,37.687a2.169,2.169,0,0,1-4.159,0h-8.5a3.475,3.475,0,0,1-1.5-.341v5.641a2.009,2.009,0,0,0,2,2H30.029a2.008,2.008,0,0,0,2-2v-5.64a3.477,3.477,0,0,1-1.5.341h-8.5Z" transform="translate(-7.382 -24.349)" fill="#fff"/><path d="M29.947,14.6H25.14a3.814,3.814,0,0,0-3.759-3.208H17.529A3.814,3.814,0,0,0,13.771,14.6H8.964a2.052,2.052,0,0,0-2.086,2V21.22a2,2,0,0,0,2,2h8.4a2.174,2.174,0,0,1,.667-1.468c.012-.012.026-.021.039-.032a2.2,2.2,0,0,1,.275-.22c.035-.024.075-.04.112-.061a2.141,2.141,0,0,1,.249-.131,2.18,2.18,0,0,1,.215-.067c.062-.019.121-.043.186-.056a2.159,2.159,0,0,1,.432-.044,2.192,2.192,0,0,1,.432.044c.064.013.123.038.185.056a2.056,2.056,0,0,1,.215.067,2.165,2.165,0,0,1,.248.131c.037.022.077.038.113.061a2.146,2.146,0,0,1,.275.219c.013.012.027.021.039.033a2.172,2.172,0,0,1,.667,1.468h8.4a2,2,0,0,0,2-2V16.6A2.051,2.051,0,0,0,29.947,14.6ZM15.7,14.6a1.933,1.933,0,0,1,1.831-1.334h3.852A1.933,1.933,0,0,1,23.212,14.6Z" transform="translate(-6.878 -11.387)" fill="#fff"/></svg>